<svg xmlns="http://www.w3.org/2000/svg" viewBox="0 0 100 100">
   <circle cx="50" cy="50" r="50" fill="#000008"/>
   <path fill="#fff" d="M49.01 76.556c-7.926-2.79-16.674-11.83-20.551-21.237-.984-2.387-.999-2.55-.145-1.606 1.001 1.107 1.83 1.854 2.625 2.364.537.345.908.823 1.488 1.92 3.419 6.46 8.764 11.749 15.55 15.382 2.075 1.11 2.111 1.11 4.413-.158 6.862-3.78 12.149-9.082 15.39-15.44.383-.752.8-1.254 1.413-1.7.478-.346 1.439-1.224 2.135-1.95 2.585-2.694-1.409 5.715-4.894 10.308-5.02 6.612-14.444 13.165-17.425 12.117M35.284 55.989c-6.36-1.7-10.01-8.454-10.254-18.977-.172-7.41.039-7.617 10.347-10.246 3.812-.972 8.668-2.213 10.79-2.756 3.862-.988 3.862-.988 10.219.632 3.496.89 8.236 2.095 10.532 2.676 7.713 1.95 8.088 2.382 8.082 9.295-.01 12.67-5.13 19.983-13.768 19.667-11.164-.41-12.352-16.286-1.385-18.509 3.654-.74 8.13.34 7.986 1.929-.488 5.391-6.355 8.977-11.71 7.155-3.214-1.093-1.01 4.846 2.379 6.412 7.19 3.321 13.308-3.162 14.117-14.96.485-7.078.657-6.903-9.166-9.369a2542.03 2517.084 0 0 1-10.104-2.556c-3.352-.86-3.352-.86-4.62-.513-.697.191-4.906 1.266-9.354 2.39-10.696 2.7-10.312 2.582-11.077 3.42-2.096 2.298-.72 13.295 2.229 17.814 4.13 6.326 12.888 5.918 14.625-.683.599-2.279.452-2.517-1.201-1.953-5.15 1.759-10.312-1.162-11.582-6.553-.646-2.742 5.973-3.842 10.345-1.72 10.45 5.075 3.892 20.432-7.43 17.405m8.146-11.477c3.986-1.31-3.156-5.437-7.586-4.385-1.068.254-1.028.137-.449 1.287 1.575 3.128 4.507 4.258 8.036 3.098m18.104.022c1.511-.662 3.08-2.367 3.507-3.81.294-.993-4.137-1.049-6.228-.08-1.802.835-3.446 2.369-3.446 3.215 0 .898 4.527 1.394 6.167.675"/>
</svg>
