<svg xmlns="http://www.w3.org/2000/svg" viewBox="0 0 1024 1024">
   <circle cx="512" cy="512" r="512" style="fill:#1B1F28"/>
   <path d="M515.08224 511.97632V392.5984H451.91168A135.168 135.168 0 0 1 530.05312 367.92c74.50624 0 135.12704 60.18048 135.12704 134.12352v8.4992h127.1808v-8.4992c0-35.1232-6.9632-69.21216-20.65408-101.35552a259.072 259.072 0 0 0-56.19712-82.7392 261.12 261.12 0 0 0-83.3536-55.74656 262.144 262.144 0 0 0-102.0928-20.52096 262.7584 262.7584 0 0 0-178.11456 69.2224V240.688H231.64928V389.5776L386.2528 512.00704h128.83968zM509.40928 511.9968v119.67488h62.26944a134.144 134.144 0 0 1-78.21312 24.8832c-74.36288 0-134.88128-60.3136-134.88128-134.44096v-8.51968H231.6288v8.51968c0 35.19488 6.93248 69.36576 20.60288 101.59104a260.096 260.096 0 0 0 56.07424 82.92352 261.12 261.12 0 0 0 83.21024 55.9104 262.8608 262.8608 0 0 0 280.76032-49.78688v70.5536h120.064V634.68224l-154.3168-122.6752z" style="fill:#FFFFFF"/>
</svg>
