<?xml version="1.0" encoding="UTF-8"?>
<svg id="Layer_1" xmlns="http://www.w3.org/2000/svg" version="1.1" xmlns:xlink="http://www.w3.org/1999/xlink" viewBox="0 0 1024 1024">
  <!-- Generator: Adobe Illustrator 30.2.1, SVG Export Plug-In . SVG Version: 2.1.1 Build 1)  -->
  <defs>
    <style>
      .st0 {
        fill: none;
      }

      .st1 {
        fill: #121a35;
      }

      .st2 {
        fill: url(#linear-gradient);
        fill-rule: evenodd;
      }

      .st3 {
        clip-path: url(#clippath);
      }
    </style>
    <clipPath id="clippath">
      <rect class="st0" x="256" y="204.8" width="512" height="614.4"/>
    </clipPath>
    <linearGradient id="linear-gradient" x1="114.09" y1="355.78" x2="744.75" y2="613.59" gradientTransform="translate(0 1026) scale(1 -1)" gradientUnits="userSpaceOnUse">
      <stop offset="0" stop-color="#4b2efb"/>
      <stop offset="1" stop-color="#e65ffc"/>
    </linearGradient>
  </defs>
  <circle id="Background__x28_CHANGE_THE_COLOR_x29_" class="st1" cx="512" cy="512" r="512"/>
  <g class="st3">
    <path class="st2" d="M256,300.74c0-17.65,0-26.48,3.42-33.58,3.02-6.26,7.87-11.57,13.98-15.29,6.93-4.22,16.15-5.47,34.58-7.98l262.85-35.74c23.86-3.24,35.79-4.87,45.06-1.44,8.14,3.01,14.93,8.59,19.22,15.8,4.89,8.21,4.89,19.64,4.89,42.49v494c0,22.85,0,34.28-4.89,42.49-4.29,7.21-11.09,12.79-19.22,15.8-9.27,3.42-21.2,1.8-45.06-1.44h0l-262.85-35.74h0c-18.43-2.51-27.64-3.76-34.58-7.98-6.11-3.72-10.96-9.03-13.98-15.29-3.42-7.1-3.42-15.93-3.42-33.58v-422.53ZM537.6,467.3c0-5.37,0-8.06.9-10.19.79-1.87,2.07-3.43,3.66-4.49,1.81-1.2,4.2-1.44,8.98-1.93l21.41-2.18c5.63-.57,8.45-.86,10.63.19,1.91.92,3.49,2.54,4.49,4.58,1.13,2.33,1.13,5.5,1.13,11.83v93.76c0,6.33,0,9.5-1.13,11.83-.99,2.05-2.57,3.66-4.49,4.58-2.17,1.05-4.99.77-10.63.19l-21.41-2.18c-4.78-.49-7.17-.73-8.98-1.93-1.59-1.06-2.87-2.62-3.66-4.49-.9-2.12-.9-4.81-.9-10.19v-89.4ZM712.25,268.8h-33.85v499.2h33.85c19.51,0,29.27,0,36.73-3.81,6.56-3.35,11.89-8.7,15.23-15.27,3.8-7.48,3.8-17.26,3.8-36.83v-387.38c0-19.57,0-29.36-3.8-36.83-3.34-6.58-8.67-11.92-15.23-15.27-7.45-3.81-17.21-3.81-36.73-3.81Z"/>
  </g>
</svg>